<svg width="20" height="20" viewBox="0 0 20 20" fill="none" xmlns="http://www.w3.org/2000/svg">
<path d="M4.74114 17.8661L12.6072 10L4.74114 2.13387C4.50907 1.89897 4.37937 1.58178 4.38038 1.25158C4.38138 0.921372 4.513 0.604978 4.74649 0.371488C4.97998 0.137997 5.29637 0.00637921 5.62658 0.00537686C5.95678 0.00437451 6.27397 0.134069 6.50887 0.366138L15.2589 9.11614C15.4933 9.35056 15.625 9.66849 15.625 10C15.625 10.3315 15.4933 10.6495 15.2589 10.8839L6.50887 19.6339C6.27397 19.8659 5.95678 19.9956 5.62658 19.9946C5.29637 19.9936 4.97998 19.862 4.74649 19.6285C4.513 19.395 4.38138 19.0786 4.38038 18.7484C4.37937 18.4182 4.50907 18.101 4.74114 17.8661Z" fill="currentColor"/>
</svg>
