<svg width="24" height="24" viewBox="0 0 24 24" fill="none" xmlns="http://www.w3.org/2000/svg">
<path d="M9.64816 3.44054C7.55137 1.34482 3.4482 1.10181 0.544926 1.10181C0.243983 1.10181 0 1.34579 0 1.64673C0 4.55108 0.243012 8.65425 2.33873 10.7511C3.32269 11.6274 4.60886 12.0866 5.92533 12.0316C7.28271 12.0851 8.61088 11.6283 9.64816 10.7511C11.2099 9.18824 11.4965 5.28891 9.64816 3.44054Z" fill="currentColor"/>
<path d="M23.4551 3.25745C20.5507 3.25745 16.4476 3.50046 14.3507 5.59618C12.498 7.44889 12.789 11.3428 14.3507 12.9056C15.3883 13.7829 16.7169 14.2398 18.0746 14.1862C19.391 14.241 20.6772 13.7818 21.6612 12.9056C23.758 10.8088 24 6.70565 24 3.80125C23.9994 3.50077 23.7556 3.25745 23.4551 3.25745Z" fill="currentColor"/>
<path d="M11.4431 22.8982C11.1421 22.8982 10.8981 22.6542 10.8981 22.3532C10.8981 10.7957 6.65984 7.89572 5.06435 6.80479C4.87191 6.68193 4.68969 6.5438 4.51942 6.39177C4.31033 6.17532 4.31636 5.83034 4.53281 5.62125C4.74399 5.41727 5.07876 5.41727 5.28994 5.62125C5.41301 5.72531 5.54338 5.82038 5.68008 5.90569C7.09683 6.87452 10.4339 9.15773 11.588 16.6469C12.4799 12.7315 15.1237 9.44416 18.7568 7.73332C19.035 7.60244 19.3671 7.70726 19.5197 7.97418C19.6575 8.21709 19.5724 8.5257 19.3295 8.66358C19.3204 8.66874 19.3111 8.67364 19.3017 8.67824L19.2134 8.71967C13.2391 11.5281 11.9847 17.6834 11.9847 22.3533C11.9847 22.6529 11.7427 22.8963 11.4431 22.8982Z" fill="currentColor"/>
</svg>
